<svg xmlns="http://www.w3.org/2000/svg" viewBox="0 0 64 64">
  <rect width="64" height="64" rx="14" fill="#ffffff"/>
  <path d="M58 33c0-2.1-.2-3.7-.6-5.5H32v10.2h14.9c-.3 2.5-1.9 6.2-5.3 8.7l-.1.7 7.7 5.9.5.1C54.6 48.8 58 42.3 58 33z" fill="#4285F4"/>
  <path d="M32 58c7.3 0 13.4-2.4 17.8-6.6l-8.5-6.6c-2.3 1.6-5.4 2.8-9.3 2.8-7.2 0-13.2-4.7-15.4-11.2l-.7.1-8 6.1-.2.6C12 51.9 21.2 58 32 58z" fill="#34A853"/>
  <path d="M16.6 36.4c-.6-1.8-1-3.7-1-5.7s.4-3.9 1-5.7l-.1-.8-8.2-6.2-.5.2A25.8 25.8 0 0 0 5 30.7c0 4.3 1 8.3 2.8 12l8.8-6.3z" fill="#FBBC05"/>
  <path d="M32 13.8c4.9 0 8.2 2.1 10.1 3.9l7.3-7C45.4 6.8 39.3 4.5 32 4.5 21.2 4.5 12 10.6 7.8 19.4l8.8 6.8C18.8 18.5 24.8 13.8 32 13.8z" fill="#EA4335"/>
</svg>
