<svg xmlns="http://www.w3.org/2000/svg" width="1200" height="675" viewBox="0 0 1200 675" role="img" aria-labelledby="title desc">
  <title id="title">AUDELA Credit</title>
  <desc id="desc">Credit product banner with bank and checklist symbols.</desc>
  <defs>
    <linearGradient id="bg" x1="0" y1="0" x2="1" y2="1">
      <stop offset="0%" stop-color="#3f2a00"/>
      <stop offset="100%" stop-color="#9a6b00"/>
    </linearGradient>
  </defs>
  <rect width="1200" height="675" fill="url(#bg)"/>
  <rect x="80" y="80" width="1040" height="515" rx="28" fill="#fff4d2" fill-opacity="0.12" stroke="#ffdc85" stroke-opacity="0.45"/>
  <polygon points="240,250 420,160 600,250" fill="#ffd77a"/>
  <rect x="260" y="250" width="40" height="210" rx="8" fill="#ffcc52"/>
  <rect x="340" y="250" width="40" height="210" rx="8" fill="#ffcc52"/>
  <rect x="420" y="250" width="40" height="210" rx="8" fill="#ffcc52"/>
  <rect x="500" y="250" width="40" height="210" rx="8" fill="#ffcc52"/>
  <rect x="220" y="460" width="400" height="34" rx="10" fill="#ffe19c"/>
  <rect x="730" y="170" width="280" height="360" rx="18" fill="#fff0c4"/>
  <line x1="780" y1="260" x2="950" y2="260" stroke="#ad7a00" stroke-width="10"/>
  <line x1="780" y1="330" x2="950" y2="330" stroke="#ad7a00" stroke-width="10"/>
  <polyline points="780,410 840,455 950,365" fill="none" stroke="#3e8e41" stroke-width="12" stroke-linecap="round" stroke-linejoin="round"/>
  <text x="170" y="560" font-size="52" font-family="Verdana, sans-serif" font-weight="700" fill="#ffffff">AUDELA CREDIT</text>
  <text x="170" y="605" font-size="30" font-family="Verdana, sans-serif" fill="#ffefc8">Origination, workflow and risk review</text>
</svg>
