<svg xmlns="http://www.w3.org/2000/svg" width="1200" height="675" viewBox="0 0 1200 675" role="img" aria-labelledby="title desc">
  <title id="title">AUDELA Project</title>
  <desc id="desc">Project management banner with kanban layout and timeline.</desc>
  <defs>
    <linearGradient id="bg" x1="0" y1="0" x2="1" y2="1">
      <stop offset="0%" stop-color="#12193f"/>
      <stop offset="100%" stop-color="#3553c7"/>
    </linearGradient>
  </defs>
  <rect width="1200" height="675" fill="url(#bg)"/>
  <rect x="80" y="80" width="1040" height="515" rx="28" fill="#dee5ff" fill-opacity="0.11" stroke="#b9c8ff" stroke-opacity="0.45"/>
  <rect x="180" y="170" width="250" height="340" rx="18" fill="#dce5ff"/>
  <rect x="475" y="170" width="250" height="340" rx="18" fill="#c3d4ff"/>
  <rect x="770" y="170" width="250" height="340" rx="18" fill="#a9c2ff"/>
  <rect x="210" y="230" width="190" height="58" rx="10" fill="#5a78ea"/>
  <rect x="210" y="315" width="190" height="58" rx="10" fill="#7f98f3"/>
  <rect x="505" y="250" width="190" height="58" rx="10" fill="#4e67c9"/>
  <rect x="505" y="335" width="190" height="58" rx="10" fill="#6f88e1"/>
  <rect x="800" y="280" width="190" height="58" rx="10" fill="#3553c7"/>
  <polyline points="210,540 370,520 530,535 690,505 850,515 1010,490" fill="none" stroke="#ffdd7d" stroke-width="10" stroke-linecap="round" stroke-linejoin="round"/>
  <text x="170" y="560" font-size="52" font-family="Verdana, sans-serif" font-weight="700" fill="#ffffff">AUDELA PROJECT</text>
  <text x="170" y="605" font-size="30" font-family="Verdana, sans-serif" fill="#dee5ff">Planning, delivery and execution tracking</text>
</svg>
